<svg xmlns="http://www.w3.org/2000/svg" width="400" height="400" viewBox="0 0 400 400">
  <rect width="400" height="400" fill="#1e293b"/>
  <g stroke="rgba(255,255,255,0.08)">
    <line x1="66" y1="0" x2="66" y2="400"/>
    <line x1="133" y1="0" x2="133" y2="400"/>
    <line x1="200" y1="0" x2="200" y2="400"/>
    <line x1="266" y1="0" x2="266" y2="400"/>
    <line x1="333" y1="0" x2="333" y2="400"/>
    <line x1="0" y1="66" x2="400" y2="66"/>
    <line x1="0" y1="133" x2="400" y2="133"/>
    <line x1="0" y1="200" x2="400" y2="200"/>
    <line x1="0" y1="266" x2="400" y2="266"/>
    <line x1="0" y1="333" x2="400" y2="333"/>
  </g>
  <rect x="72" y="172" width="120" height="56" rx="10" fill="#e74c3c"/>
  <rect x="272" y="172" width="56" height="120" rx="10" fill="#3b82f6"/>
  <rect x="6" y="6" width="120" height="56" rx="10" fill="#eab308"/>
  <rect x="205" y="272" width="176" height="56" rx="10" fill="#22c55e"/>
  <rect x="396" y="180" width="4" height="40" fill="#fbbf24"/>
  <text x="200" y="380" font-family="system-ui, sans-serif" font-size="28" font-weight="700" fill="white" text-anchor="middle">Gridlock</text>
</svg>
